<svg width="28" height="28" viewBox="0 0 28 28" fill="none" xmlns="http://www.w3.org/2000/svg">
<path fill-rule="evenodd" clip-rule="evenodd" d="M6.17508 6.17552C6.39386 5.9568 6.69056 5.83392 6.99991 5.83392C7.30927 5.83392 7.60596 5.9568 7.82475 6.17552L13.9999 12.351L20.1751 6.17552C20.2827 6.06409 20.4114 5.97521 20.5538 5.91406C20.6961 5.85291 20.8492 5.82073 21.0041 5.81938C21.159 5.81803 21.3126 5.84755 21.456 5.90622C21.5994 5.96488 21.7297 6.05151 21.8392 6.16106C21.9487 6.27061 22.0354 6.40087 22.094 6.54426C22.1527 6.68765 22.1822 6.84128 22.1809 6.9962C22.1795 7.15111 22.1473 7.30421 22.0862 7.44656C22.0251 7.5889 21.9362 7.71764 21.8247 7.82527L15.6496 14.0007L21.8247 20.1762C22.0373 20.3962 22.1549 20.691 22.1522 20.9969C22.1495 21.3028 22.0268 21.5954 21.8105 21.8117C21.5942 22.0281 21.3016 22.1508 20.9957 22.1534C20.6898 22.1561 20.3951 22.0385 20.1751 21.8259L13.9999 15.6505L7.82475 21.8259C7.60471 22.0385 7.31001 22.1561 7.00411 22.1534C6.69822 22.1508 6.4056 22.0281 6.18929 21.8117C5.97298 21.5954 5.85029 21.3028 5.84763 20.9969C5.84497 20.691 5.96256 20.3962 6.17508 20.1762L12.3502 14.0007L6.17508 7.82527C5.95636 7.60648 5.8335 7.30977 5.8335 7.0004C5.8335 6.69102 5.95636 6.39432 6.17508 6.17552Z" fill="white"/>
</svg>
