<svg width="34" height="33" viewBox="0 0 34 33" fill="none" xmlns="http://www.w3.org/2000/svg">
<g filter="url(#filter0_d_3501_1211)">
<path fill-rule="evenodd" clip-rule="evenodd" d="M12.333 9.33342C10.4797 9.33342 8.99967 10.8174 8.99967 12.6228C8.99967 14.6548 10.1757 16.8228 11.9943 18.9468C13.5223 20.7294 15.3783 22.3374 16.9997 23.6348C18.621 22.3374 20.477 20.7281 22.005 18.9468C23.8237 16.8228 24.9997 14.6534 24.9997 12.6228C24.9997 10.8174 23.5197 9.33342 21.6663 9.33342C19.813 9.33342 18.333 10.8174 18.333 12.6228C18.333 12.9764 18.1925 13.3155 17.9425 13.5656C17.6924 13.8156 17.3533 13.9561 16.9997 13.9561C16.6461 13.9561 16.3069 13.8156 16.0569 13.5656C15.8068 13.3155 15.6663 12.9764 15.6663 12.6228C15.6663 10.8174 14.1863 9.33342 12.333 9.33342ZM16.9997 8.87875C16.4351 8.18642 15.7233 7.62865 14.916 7.24601C14.1088 6.86337 13.2264 6.66549 12.333 6.66675C9.03167 6.66675 6.33301 9.32009 6.33301 12.6228C6.33301 15.6241 8.02234 18.4094 9.96901 20.6814C11.9437 22.9868 14.365 24.9721 16.181 26.3854C16.4151 26.5675 16.7031 26.6663 16.9997 26.6663C17.2962 26.6663 17.5843 26.5675 17.8183 26.3854C19.6343 24.9721 22.0557 22.9854 24.0303 20.6814C25.977 18.4094 27.6663 15.6241 27.6663 12.6228C27.6663 9.32009 24.9677 6.66675 21.6663 6.66675C19.7863 6.66675 18.101 7.52809 16.9997 8.87875Z" fill="white"/>
</g>
<defs>
<filter id="filter0_d_3501_1211" x="-5" y="-6" width="44" height="43.9985" filterUnits="userSpaceOnUse" color-interpolation-filters="sRGB">
<feFlood flood-opacity="0" result="BackgroundImageFix"/>
<feColorMatrix in="SourceAlpha" type="matrix" values="0 0 0 0 0 0 0 0 0 0 0 0 0 0 0 0 0 0 127 0" result="hardAlpha"/>
<feOffset/>
<feGaussianBlur stdDeviation="3"/>
<feComposite in2="hardAlpha" operator="out"/>
<feColorMatrix type="matrix" values="0 0 0 0 0 0 0 0 0 0 0 0 0 0 0 0 0 0 0.6 0"/>
<feBlend mode="normal" in2="BackgroundImageFix" result="effect1_dropShadow_3501_1211"/>
<feBlend mode="normal" in="SourceGraphic" in2="effect1_dropShadow_3501_1211" result="shape"/>
</filter>
</defs>
</svg>
