<svg width="28" height="28" viewBox="0 0 28 28" fill="none" xmlns="http://www.w3.org/2000/svg">
<path fill-rule="evenodd" clip-rule="evenodd" d="M4.66667 5.83337C4.35725 5.83337 4.0605 5.95629 3.84171 6.17508C3.62292 6.39388 3.5 6.69062 3.5 7.00004C3.5 7.30946 3.62292 7.60621 3.84171 7.825C4.0605 8.04379 4.35725 8.16671 4.66667 8.16671H23.3333C23.6428 8.16671 23.9395 8.04379 24.1583 7.825C24.3771 7.60621 24.5 7.30946 24.5 7.00004C24.5 6.69062 24.3771 6.39388 24.1583 6.17508C23.9395 5.95629 23.6428 5.83337 23.3333 5.83337H4.66667ZM3.5 14C3.5 13.6906 3.62292 13.3939 3.84171 13.1751C4.0605 12.9563 4.35725 12.8334 4.66667 12.8334H23.3333C23.6428 12.8334 23.9395 12.9563 24.1583 13.1751C24.3771 13.3939 24.5 13.6906 24.5 14C24.5 14.3095 24.3771 14.6062 24.1583 14.825C23.9395 15.0438 23.6428 15.1667 23.3333 15.1667H4.66667C4.35725 15.1667 4.0605 15.0438 3.84171 14.825C3.62292 14.6062 3.5 14.3095 3.5 14ZM3.5 21C3.5 20.6906 3.62292 20.3939 3.84171 20.1751C4.0605 19.9563 4.35725 19.8334 4.66667 19.8334H23.3333C23.6428 19.8334 23.9395 19.9563 24.1583 20.1751C24.3771 20.3939 24.5 20.6906 24.5 21C24.5 21.3095 24.3771 21.6062 24.1583 21.825C23.9395 22.0438 23.6428 22.1667 23.3333 22.1667H4.66667C4.35725 22.1667 4.0605 22.0438 3.84171 21.825C3.62292 21.6062 3.5 21.3095 3.5 21Z" fill="white"/>
</svg>
